<svg width="1035" height="814" viewBox="0 0 1035 814" fill="none" xmlns="http://www.w3.org/2000/svg">
<g clip-path="url(#clip0_121_1829)">
<path d="M-443.154 929.631C-248.758 895.544 -50.1581 906.214 143.546 940.711C227.61 955.69 311.801 965.565 396.377 948.38C503.763 926.553 582.957 861.944 681.27 820.65C840.708 753.681 967.675 916.14 1116.4 940.839C1175.12 950.586 1223.53 925.707 1279.73 914.857C1351.88 900.93 1414.21 921.423 1479.03 952.74" stroke="url(#paint0_linear_121_1829)" stroke-miterlimit="10"/>
<path d="M-443.154 895.287C-248.604 855.327 -57.7699 878.975 133.91 922.244C218.23 941.275 302.78 951.689 387.843 930.631C432.002 919.705 473.726 901.879 514.015 880.95C574.32 849.633 627.68 797.309 688.19 769.327C850.832 694.099 966.88 883.797 1111.56 915.293C1177.4 929.631 1221.2 898.134 1281.91 882.668C1354.08 864.304 1417 893.928 1479.03 928.99" stroke="url(#paint1_linear_121_1829)" stroke-miterlimit="10"/>
<path d="M-443.154 860.072C-252.448 814.75 -77.53 852.582 107.256 902.931C193.062 926.297 278.817 940.429 366.186 916.191C412.421 903.367 455.452 882.232 496.766 858.148C561.505 820.419 617.351 760.273 682.526 726.057C853.702 636.21 955.219 856.506 1103.15 891.594C1172.68 908.086 1213.41 870.28 1275.33 850.761C1350.27 827.139 1416.88 866.381 1479 905.239" stroke="url(#paint2_linear_121_1829)" stroke-miterlimit="10"/>
<path d="M-443.154 824.471C-261.034 774.251 -106.363 823.856 66.2235 880.642C151.825 908.804 237.195 929.887 326.41 906.804C462.141 871.691 550.613 764.838 664.688 692.842C849.935 575.961 932.486 836.244 1094.1 869.382C1164.07 883.745 1203.64 839.091 1265.48 817.52C1343.81 790.205 1416.11 839.399 1479.03 881.437" stroke="url(#paint3_linear_121_1829)" stroke-miterlimit="10"/>
<path d="M-443.154 789.05C-266.442 731.931 -130.762 796.129 31.5217 859.764C119.148 894.107 207.773 921.962 301.14 893.569C439.562 851.479 529.777 736.83 644.21 657.088C838.761 521.535 902.628 811.185 1069.73 845.247C1140.85 859.738 1184.75 810.185 1245.65 785.998C1331.66 751.834 1410.62 809.98 1479.03 857.763" stroke="url(#paint4_linear_121_1829)" stroke-miterlimit="10"/>
<path d="M-443.154 754.271C-363.986 724.082 -286.714 717.131 -204.83 741.498C-129.224 763.992 -64.3053 809.415 7.04599 841.553C91.3144 879.513 177.889 912.805 270.103 882.565C416.573 834.525 504.737 704.076 624.271 617.538C817.822 477.393 874.129 776.123 1033.03 816.417C1113.48 836.808 1160.1 777.688 1228.5 750.654C1320.95 714.105 1407.32 782.33 1479.03 834.013" stroke="url(#paint5_linear_121_1829)" stroke-miterlimit="10"/>
<path d="M-443.154 720.697C-371.905 688.405 -300.913 678.351 -225.666 703.589C-151.547 728.443 -91.344 780.766 -23.0682 816.982C56.3563 859.123 138.087 901.417 229.481 874.435C382.717 829.242 478.903 682.737 597.822 587.939C800.599 426.275 834.25 751.372 1000.38 788.794C1085.62 808.005 1138.7 739.446 1211.89 712.72C1310.36 676.786 1404.8 755.297 1479 810.236" stroke="url(#paint6_linear_121_1829)" stroke-miterlimit="10"/>
<path d="M-443.154 688.815C-278.488 600.327 -179.585 705 -45.468 789.589C30.7016 837.629 112.715 893.21 206.056 862.277C357.216 812.185 456.657 661.576 571.244 561.418C645.21 496.784 716.023 481.779 779.378 563.547C834.327 634.44 869.618 736.547 967.393 757.092C1052.53 774.969 1112.66 704.794 1185.7 676.196C1293.19 634.081 1399.6 726.16 1479.03 786.511" stroke="url(#paint7_linear_121_1829)" stroke-miterlimit="10"/>
<path d="M-443.154 659.165C-283.665 558.853 -184.275 663.013 -58.4876 757.554C8.60935 807.979 84.5739 877.821 175.224 854.147C230.403 839.732 279.329 798.771 321.464 762.607C402.451 693.124 469.676 611.151 546.564 537.744C620.273 467.364 692.931 439.664 756.133 532.512C803.239 601.712 839.376 708.616 934.075 723.723C1024.11 738.086 1090 660.781 1168.97 634.055C1282.86 595.48 1397.68 699.152 1479.03 762.709" stroke="url(#paint8_linear_121_1829)" stroke-miterlimit="10"/>
<path d="M-443.154 632.286C-380.978 587.529 -312.369 559.443 -236.61 586.708C-169.154 610.997 -116.717 667.424 -64.8693 714.438C-6.43497 767.428 67.3768 861.508 157.079 843.015C207.568 832.602 251.983 793.924 289.709 760.991C372.978 688.277 445.969 604.046 520.832 523.022C590.902 447.153 668.558 392.573 733.912 498.168C777.917 569.241 812.081 681.659 911.88 685.609C1000.45 689.123 1067.01 618.333 1146.85 592.222C1269.3 552.185 1393.53 669.861 1479.05 738.984" stroke="url(#paint9_linear_121_1829)" stroke-miterlimit="10"/>
<path d="M-443.154 607.611C-379.338 557.853 -308.243 524.818 -227.639 553.493C-159.62 577.679 -103.287 632.824 -53.0029 682.403C-0.719636 733.983 69.4528 835.295 155.054 818.008C202.955 808.338 245.089 769.583 280.406 738.138C361.163 666.193 433.283 584.169 506.249 504.581C573.064 431.713 651.54 365.283 717.817 470.391C761.181 539.155 794.115 648.906 892.043 650.265C979.849 651.471 1053.07 587.682 1135.06 565.83C1262.67 531.794 1387.38 643.366 1479.03 714.643" stroke="url(#paint10_linear_121_1829)" stroke-miterlimit="10"/>
<path d="M-443.154 580.116C-372.751 524.689 -297.632 494.885 -211.57 533.359C-140.398 565.189 -78.0682 625.412 -22.9913 678.735C26.4215 726.596 87.6494 807.364 165.562 782.202C213.104 766.839 254.443 725.801 289.914 692.816C361.009 626.72 427.081 555.134 494.152 485.011C558.071 418.145 635.625 353.1 704.336 446.333C753.211 512.66 784.324 618.743 881.894 623.591C968.802 627.9 1052.84 570.523 1136.62 555.134C1263.33 531.845 1381.17 619.256 1479.05 686.609" stroke="url(#paint11_linear_121_1829)" stroke-miterlimit="10"/>
<path d="M-443.154 549.569C-367.446 491.756 -290.303 466.339 -201.857 511.993C-134.093 546.952 -71.5584 603.251 -15.8152 654.626C36.135 702.512 99.9257 785.024 178.428 748.5C219.408 729.443 253.136 693.15 285.326 662.448C353.038 597.814 417.085 529.28 483.208 463.056C551.612 394.548 629.115 341.429 700.082 432.508C748.931 495.219 784.119 593.941 876.743 598.045C961.959 601.841 1046.61 560.982 1129.78 547.388C1258.15 526.408 1372.13 591.915 1479.05 655.036" stroke="url(#paint12_linear_121_1829)" stroke-miterlimit="10"/>
<path d="M-443.154 516.533C-355.836 453.489 -272.542 439.228 -179.559 497.886C-112.744 540.027 -50.9783 597.121 8.81433 648.598C58.7398 691.585 114.893 759.067 184.758 719.978C222.176 699.049 253.316 661.73 283.122 631.542C346.58 567.241 408.372 501.375 473.674 438.92C541.335 374.208 618.786 327.502 690.804 409.27C744.574 470.314 781.813 567.677 874.206 576.5C955.629 584.271 1044.36 552.416 1124.45 540.002C1252.44 520.175 1365.05 565.445 1479 620.718" stroke="url(#paint13_linear_121_1829)" stroke-miterlimit="10"/>
<path d="M-443.154 481.625C-348.557 417.939 -261.572 411.117 -166.77 477.752C-95.2397 528.024 -30.9619 591.555 37.0576 646.649C83.8307 684.506 135.576 736.419 194.036 692.919C232.684 664.167 264.234 620.846 296.321 585.554C350.578 525.92 406.193 467.082 465.883 412.861C539.029 346.405 618.351 315.011 692.009 395.112C745.932 453.745 787.246 545.259 875.846 555.186C959.704 564.573 1050.38 542.541 1133.44 531.127C1255.59 514.353 1364.31 541.669 1479.03 584.169" stroke="url(#paint14_linear_121_1829)" stroke-miterlimit="10"/>
<path d="M-443.154 445.384C-335.307 377.902 -243.632 385.083 -144.627 464.184C-69.5081 524.202 -5.48669 594.043 72.8101 650.676C126.529 689.508 165.254 711.437 214.283 657.319C297.603 565.342 365.084 460.516 462.705 381.211C534.364 323.014 613.199 301.315 684.602 369.053C744.932 426.275 785.529 514.122 872.616 534.744C953.015 553.749 1053.92 535 1134.75 523.971C1254.05 507.684 1361.72 517.251 1479.05 546.183" stroke="url(#paint15_linear_121_1829)" stroke-miterlimit="10"/>
<path d="M-443.154 408.424C-322.39 337.915 -224.051 360.82 -122.227 451.077C-49.2868 515.738 11.3772 590.606 94.1591 643.725C154.926 682.737 186.911 689.636 228.481 627.515C294.348 529.101 360.65 428.507 456.605 355.921C534.185 297.211 612.789 284.028 688.6 351.714C751.724 408.09 796.652 498.784 885.918 518.739C965.086 536.436 1057.48 528.024 1137.29 517.149C1253.16 501.349 1362 494.219 1479.05 507.274" stroke="url(#paint16_linear_121_1829)" stroke-miterlimit="10"/>
<path d="M-443.154 371.336C-311.523 298.622 -208.546 334.453 -104.21 433.944C-30.3725 504.35 30.4965 590.35 121.403 640.262C188.884 677.325 212.565 658.063 244.756 594.531C295.962 493.501 360.727 391.393 455.58 325.578C535.876 269.844 617.095 268.125 692.521 332.17C758.311 388.059 806.237 476.393 894.376 501.169C1083.42 554.314 1289.14 474.88 1479.05 468.288" stroke="url(#paint17_linear_121_1829)" stroke-miterlimit="10"/>
<path d="M-443.154 334.684C-377.672 299.776 -316.111 279.052 -242.837 304.47C-182.225 325.502 -132.581 369.643 -88.1148 414.605C-14.7644 488.832 47.9499 588.708 145.674 632.824C218.973 665.911 236.324 621.334 261.056 559.136C301.37 457.669 362.239 353.715 457.349 294.313C664.637 164.812 739.448 426.84 904.371 483.651C1096.97 550.005 1290.7 466.287 1479.05 429.789" stroke="url(#paint18_linear_121_1829)" stroke-miterlimit="10"/>
<path d="M-443.154 299.058C-374.853 262.893 -311.908 242.733 -237.302 270.203C-174.715 293.235 -124.124 340.301 -78.7858 387.982C-7.4857 462.953 66.2491 592.735 172.61 622.59C247.062 643.494 258.8 573.781 277.663 517.662C310.674 419.427 367.57 311.113 462.757 259.148C660.357 151.27 759.874 393.83 909.061 462.389C1104.79 552.339 1294.32 460.106 1479.03 392.445" stroke="url(#paint19_linear_121_1829)" stroke-miterlimit="10"/>
<path d="M-443.154 265.073C-374.186 227.523 -312.062 207.133 -236.148 233.73C-173.203 255.788 -121.766 305.008 -77.0174 352.971C-4.41025 430.815 73.4252 578.68 186.321 600.738C263.055 615.742 273.819 539.027 290.58 481.42C319.362 382.595 371.184 273.204 470.65 227.241C668.532 135.804 775.252 368.668 921.209 443.973C997.199 483.164 1095.59 503.247 1180.24 489.602C1287.55 472.315 1385.68 408.68 1479.05 357.049" stroke="url(#paint20_linear_121_1829)" stroke-miterlimit="10"/>
<path d="M-443.154 233.269C-369.701 190.769 -298.709 166.274 -217.388 203.003C-156.365 230.576 -107.952 281.258 -64.2029 330.452C1.35629 404.166 83.9844 559.469 194.266 571.114C277.279 579.885 287.761 489.166 305.548 427.917C333.048 333.247 382.563 231.756 482.235 195.232C678.63 123.236 792.192 339.121 933.896 423.48C1005.5 466.108 1099.1 495.296 1182.86 484.857C1295.06 470.853 1392.17 389.598 1479 324.065" stroke="url(#paint21_linear_121_1829)" stroke-miterlimit="10"/>
<path d="M-443.154 204.26C-373.802 160.042 -305.526 129.263 -223.59 162.376C-157.928 188.922 -105.645 245.272 -60.5379 297.929C3.94485 373.208 85.0352 527.767 199.597 530.486C281.277 532.41 296.398 440.382 315.671 378.928C345.478 283.976 392.61 191.872 497.151 165.018C697.339 113.566 808.493 310.959 951.734 405.654C1021.85 452.027 1115.38 490.269 1200.8 477.932C1312.51 461.773 1402.27 368.848 1479.03 294.313" stroke="url(#paint22_linear_121_1829)" stroke-miterlimit="10"/>
<path d="M-443.154 178.637C-379.492 132.444 -313.369 93.7399 -232.406 120.876C-169.308 142.011 -119.613 193.77 -77.1455 242.861C-7.58822 323.244 62.3792 466.236 182.118 475.367C273.153 482.292 296.808 393.753 323.001 323.706C358.728 228.139 408.525 147.217 517.936 132.418C711.897 106.18 823.665 273.076 958.423 378.133C1025.98 430.789 1117.45 481.215 1205.85 472.597C1323.1 461.157 1409.39 352.048 1479.03 268.408" stroke="url(#paint23_linear_121_1829)" stroke-miterlimit="10"/>
<path d="M-443.154 158.426C-379.799 114.182 -314.471 77.7607 -235.123 103.615C-173.331 123.749 -124.149 173.225 -82.1945 220.829C-14.6106 297.467 56.9202 444.588 173.225 448.615C263.157 451.719 293.938 372.003 326.179 301.93C367.519 212.134 423.467 129.93 529.572 115.593C716.741 90.3029 833.66 246.221 966.496 345.943C1031.67 394.856 1123.6 444.614 1207.31 442.972C1324.33 440.664 1411.01 329.272 1479.03 247.965" stroke="url(#paint24_linear_121_1829)" stroke-miterlimit="10"/>
<path d="M-443.154 144.601C-380.799 101.896 -316.419 66.4753 -238.634 90.0208C-178.534 108.206 -130.07 154.527 -88.7811 199.874C-22.2737 272.947 48.9495 418.529 161.487 419.222C249.728 419.76 287.3 349.483 325.82 281.027C372.875 197.412 434.641 117.183 536.978 103.127C717.381 78.3763 839.247 218.213 972.16 311.292C1036.69 356.485 1127.63 406.91 1207.49 414.041C1323.92 424.428 1412.01 311.933 1479 233.551" stroke="url(#paint25_linear_121_1829)" stroke-miterlimit="10"/>
<path d="M-443.154 136.035C-383.336 95.1249 -319.392 59.7553 -244.683 78.7354C-180.995 94.894 -130.403 143.088 -87.0383 189.743C-21.1204 260.662 44.977 392.393 155.105 387.494C238.425 383.801 280.893 320.5 324.411 258.199C377.847 181.664 442.356 109.899 540.208 95.997C717.894 70.733 842.374 191.615 980.617 277.846C1044.49 317.704 1125.52 364.975 1199.11 384.032C1318.38 414.913 1409.21 303.059 1479.03 224.061" stroke="url(#paint26_linear_121_1829)" stroke-miterlimit="10"/>
<path d="M-443.154 131.623C-384.976 91.3289 -322.39 55.1899 -248.912 70.1431C-187.735 82.6084 -138.015 125.493 -95.3934 168.557C-28.5528 236.064 33.6745 357.306 140.368 352.561C221.305 348.97 269.975 295.672 319.49 238.245C378.821 169.455 447.302 104.102 541.386 90.4056C711.564 65.6289 841.964 162.273 981.822 239.168C1051.23 277.333 1124.22 323.988 1197.08 354.869C1314.38 404.602 1406.6 296.98 1479 218.47" stroke="url(#paint27_linear_121_1829)" stroke-miterlimit="10"/>
<path d="M-443.154 130.264C-320.75 43.4172 -214.876 43.8532 -103.723 146.833C-35.4727 210.057 22.5259 318.576 125.478 314.883C203.775 312.062 258.211 268.869 313.39 218.162C378.411 158.426 450.044 100.639 540.387 87.1995C702.542 63.0641 839.837 132.957 980.951 199.259C1058.63 235.757 1121.47 281.54 1193.83 325.938C1308.08 396.035 1401.34 295.954 1479.05 215.802" stroke="url(#paint28_linear_121_1829)" stroke-miterlimit="10"/>
<path d="M-443.154 130.854C-329.233 47.3414 -224.385 31.1314 -111.565 124.082C-41.5211 181.792 12.4281 276.333 111.203 274.384C275.664 271.152 376.95 109.95 537.696 85.6349C691.675 62.3459 836.326 103.64 977.952 158.349C1064.53 191.795 1119.04 239.168 1189.26 296.954C1299.42 387.597 1393.04 298.929 1479.03 214.879" stroke="url(#paint29_linear_121_1829)" stroke-miterlimit="10"/>
<path d="M-443.154 132.29C-338.972 52.8301 -234.944 19.1791 -121.151 97.8949C-50.7988 146.551 0.792495 227.857 91.6988 230.986C255.161 236.654 376.797 108.513 533.672 84.019C676.811 61.679 829.79 74.0673 967.88 115.516C1066.19 145.037 1116.4 198.72 1185.7 270.382C1211.59 297.16 1240.7 325.04 1279.58 329.246C1356.93 337.582 1429.28 260.867 1479.03 214.802" stroke="url(#paint30_linear_121_1829)" stroke-miterlimit="10"/>
<path d="M-443.154 133.47C-346.225 56.5748 -242.684 7.71408 -126.353 72.0923C-54.3869 111.925 -4.33339 179.535 81.4984 184.536C241.193 193.847 375.72 108.206 529.341 84.3267C667.148 62.9101 823.306 45.0586 960.934 74.6059C1066.81 97.3306 1114.43 160.709 1178.6 241.707C1203.18 272.742 1231.01 308.445 1271.64 318.192C1350.11 337.018 1427.54 259.636 1479 214.519" stroke="url(#paint31_linear_121_1829)" stroke-miterlimit="10"/>
<path d="M-443.154 133.265C-348.557 55.2925 -243.427 -5.05885 -121.638 46.9567C-55.2327 75.3242 -5.81981 127.314 68.0688 134.547C226.867 150.116 371.261 107.872 526.317 85.0963C608.022 73.0927 688.523 61.1917 769.537 44.8535C832.507 32.1574 893.709 25.5657 957.731 34.7479C1068.35 50.5988 1115.07 129.699 1172.43 215.879C1195.39 250.377 1222.99 293.21 1264.72 306.932C1344.68 333.247 1424.44 258.353 1479.03 212.878" stroke="url(#paint32_linear_121_1829)" stroke-miterlimit="10"/>
<path d="M-443.154 130.597C-352.043 53.0867 -246.861 -18.7296 -122.33 14.4854C-56.3091 32.1061 -3.02628 73.0927 65.5827 81.762C222.099 101.511 367.109 106 523.497 84.1986C606.305 72.6567 683.935 55.6516 762.924 28.2588C823.742 7.17554 882.099 -10.1117 947.3 -5.49491C1063.4 2.71268 1110.56 96.1509 1162.97 186.896C1185.29 225.549 1212.25 275.281 1255.51 294.082C1337.02 329.503 1421 255.07 1479.08 208.979" stroke="url(#paint33_linear_121_1829)" stroke-miterlimit="10"/>
<path d="M-443.154 124.364C-353.324 46.1359 -248.553 -33.7598 -122.535 -21.6536C-54.8739 -15.1645 7.04598 16.8451 74.2198 26.7455C227.764 49.3933 362.829 101.075 520.55 81.8132C603.998 71.605 678.989 49.8036 754.185 12.5104C810.825 -15.5749 864.8 -43.9936 929.693 -44.8144C1055.84 -46.3533 1103.48 63.9104 1154.28 161.17C1176.22 203.183 1202.59 257.84 1247.29 280.36C1330.22 322.167 1417.67 248.53 1479.03 201.67" stroke="url(#paint34_linear_121_1829)" stroke-miterlimit="10"/>
<path d="M-443.154 113.464C-351.479 32.6959 -246.426 -52.4064 -119.177 -60.8192C-50.5682 -65.359 21.6546 -44.9427 88.4183 -31.0924C238.579 0.0451548 363.598 94.7658 523.062 77.5299C605.049 68.6811 677.451 41.9808 746.188 -3.05834C801.65 -39.4025 852.472 -78.3629 921.337 -82.3898C1050.23 -89.9048 1097.43 38.1591 1144.46 135.342C1166.81 181.484 1192.47 237.296 1238.55 264.611C1321.3 313.652 1416.72 236.167 1479.03 189.999" stroke="url(#paint35_linear_121_1829)" stroke-miterlimit="10"/>
<path d="M-443.154 96.7408C-286.279 -41.1466 -120.946 -147.46 92.6214 -95.8039C244.653 -59.0237 361.752 84.0191 526.701 70.5278C610.277 63.6796 680.68 30.1055 744.266 -23.0642C794.063 -64.6921 838.427 -110.347 906.37 -117.708C1035.95 -131.738 1083.44 -0.570331 1127.86 96.4843C1152.1 149.449 1178.35 215.699 1230.96 247.247C1315.79 298.109 1414.31 219.957 1479 172.866" stroke="url(#paint36_linear_121_1829)" stroke-miterlimit="10"/>
<path d="M-443.154 74.016C-292.199 -55.0482 -98.0076 -197.809 113.176 -138.612C261.414 -97.0608 373.414 61.166 536.338 52.8045C617.812 48.6238 687.036 9.56087 744.548 -45.789C790.168 -89.6739 830.944 -139.176 898.041 -146.614C1022.34 -160.439 1072.93 -30.9641 1116.73 61.0891C1142.95 116.157 1170.43 183.562 1224.35 217.444C1310.69 271.691 1410.42 197.617 1479 149.808" stroke="url(#paint37_linear_121_1829)" stroke-miterlimit="10"/>
<path d="M-443.154 50.2653C-291.661 -73.3101 -92.7793 -209.761 115.073 -158.515C267.847 -120.863 388.868 36.1585 554.278 25.4117C629.243 20.5385 692.06 -15.9083 744.702 -67.3083C786.708 -108.321 823.537 -155.052 884.867 -165.081C1007.19 -185.087 1067.63 -52.3551 1115.09 35.6712C1142.36 86.1991 1171.94 144.755 1221.43 177.355C1307.98 234.372 1405.37 171.25 1479.03 123.8" stroke="url(#paint38_linear_121_1829)" stroke-miterlimit="10"/>
<path d="M-443.154 26.5146C-288.79 -92.7005 -80.221 -224.535 126.093 -172.006C276.1 -133.815 404.502 9.50954 566.375 0.712035C635.394 -3.03267 695.827 -39.8386 744.087 -86.6731C782.761 -124.197 817.181 -168.903 872.745 -180.676C993.15 -206.17 1062.4 -72.4124 1114.84 11.0998C1146.36 61.2943 1179.32 116.542 1233.45 144.935C1319.1 189.846 1404.29 140.267 1479.03 95.8687" stroke="url(#paint39_linear_121_1829)" stroke-miterlimit="10"/>
<path d="M-443.154 2.76399C-283.844 -112.732 -70.2 -234.025 135.909 -182.933C284.481 -146.101 418.341 -13.3947 577.729 -24.2954C641.929 -28.6813 696.801 -60.973 742.677 -104.14C781.249 -140.433 815.9 -184.677 871.002 -194.859C985.487 -216.045 1060.07 -90.4434 1115.94 -12.6252C1148 32.0291 1181.99 77.5812 1230.86 104.641C1315.9 151.68 1401.6 108.616 1479.03 66.3471" stroke="url(#paint40_linear_121_1829)" stroke-miterlimit="10"/>
<path d="M-443.154 -20.9867C-282.742 -129.096 -75.7616 -233.461 125.375 -195.526C281.046 -166.158 421.724 -35.9656 585.212 -47.4305C647.209 -51.7908 700.005 -83.4413 745.163 -124.12C782.095 -157.412 815.643 -195.783 866.824 -205.452C972.775 -225.484 1051.66 -117.298 1109.89 -46.6098C1148 -0.313895 1189.65 50.4962 1246.67 74.1699C1327.3 107.641 1406.68 71.8872 1479.05 35.6199" stroke="url(#paint41_linear_121_1829)" stroke-miterlimit="10"/>
<path d="M-443.154 -44.7374C-278.744 -146.46 -67.4834 -239.796 131.783 -201.656C283.686 -172.571 431.284 -57.0488 590.159 -68.7703C705.541 -77.2856 755.902 -190.473 859.905 -213.403C964.471 -236.436 1049.61 -134.508 1113.89 -68.5394C1152.54 -28.8609 1192.88 12.8182 1245.06 34.3631C1325.84 67.7064 1404.24 38.1335 1479 4.02073" stroke="url(#paint42_linear_121_1829)" stroke-miterlimit="10"/>
<path d="M-443.154 -68.4881C-274.413 -162.901 -67.1502 -239.539 130.245 -207.76C283.379 -183.112 433.693 -78.3885 592.26 -90.2638C701.184 -98.4201 759.413 -200.117 859.956 -219.841C957.987 -239.052 1042.33 -158.13 1109.66 -99.01C1151.23 -62.4863 1194 -24.1671 1246.37 -3.87902C1326.56 27.2072 1403.27 3.35392 1479.05 -28.0144" stroke="url(#paint43_linear_121_1829)" stroke-miterlimit="10"/>
</g>
<defs>
<linearGradient id="paint0_linear_121_1829" x1="517.936" y1="804.582" x2="517.936" y2="957.455" gradientUnits="userSpaceOnUse">
<stop stop-color="#333333"/>
<stop offset="1" stop-color="#333333" stop-opacity="0"/>
</linearGradient>
<linearGradient id="paint1_linear_121_1829" x1="517.936" y1="751.824" x2="517.936" y2="942.264" gradientUnits="userSpaceOnUse">
<stop stop-color="#333333"/>
<stop offset="1" stop-color="#333333" stop-opacity="0"/>
</linearGradient>
<linearGradient id="paint2_linear_121_1829" x1="517.923" y1="704.685" x2="517.923" y2="928.813" gradientUnits="userSpaceOnUse">
<stop stop-color="#333333"/>
<stop offset="1" stop-color="#333333" stop-opacity="0"/>
</linearGradient>
<linearGradient id="paint3_linear_121_1829" x1="517.936" y1="662.861" x2="517.936" y2="916.655" gradientUnits="userSpaceOnUse">
<stop stop-color="#333333"/>
<stop offset="1" stop-color="#333333" stop-opacity="0"/>
</linearGradient>
<linearGradient id="paint4_linear_121_1829" x1="517.936" y1="621.197" x2="517.936" y2="905.293" gradientUnits="userSpaceOnUse">
<stop stop-color="#333333"/>
<stop offset="1" stop-color="#333333" stop-opacity="0"/>
</linearGradient>
<linearGradient id="paint5_linear_121_1829" x1="517.936" y1="580.397" x2="517.936" y2="894.325" gradientUnits="userSpaceOnUse">
<stop stop-color="#333333"/>
<stop offset="1" stop-color="#333333" stop-opacity="0"/>
</linearGradient>
<linearGradient id="paint6_linear_121_1829" x1="517.923" y1="543.147" x2="517.923" y2="882.924" gradientUnits="userSpaceOnUse">
<stop stop-color="#333333"/>
<stop offset="1" stop-color="#333333" stop-opacity="0"/>
</linearGradient>
<linearGradient id="paint7_linear_121_1829" x1="517.936" y1="507.476" x2="517.936" y2="871.208" gradientUnits="userSpaceOnUse">
<stop stop-color="#333333"/>
<stop offset="1" stop-color="#333333" stop-opacity="0"/>
</linearGradient>
<linearGradient id="paint8_linear_121_1829" x1="517.936" y1="473.304" x2="517.936" y2="858.902" gradientUnits="userSpaceOnUse">
<stop stop-color="#333333"/>
<stop offset="1" stop-color="#333333" stop-opacity="0"/>
</linearGradient>
<linearGradient id="paint9_linear_121_1829" x1="517.949" y1="439.449" x2="517.949" y2="845.387" gradientUnits="userSpaceOnUse">
<stop stop-color="#333333"/>
<stop offset="1" stop-color="#333333" stop-opacity="0"/>
</linearGradient>
<linearGradient id="paint10_linear_121_1829" x1="517.936" y1="415.805" x2="517.936" y2="819.968" gradientUnits="userSpaceOnUse">
<stop stop-color="#333333"/>
<stop offset="1" stop-color="#333333" stop-opacity="0"/>
</linearGradient>
<linearGradient id="paint11_linear_121_1829" x1="517.949" y1="399.878" x2="517.949" y2="786.95" gradientUnits="userSpaceOnUse">
<stop stop-color="#333333"/>
<stop offset="1" stop-color="#333333" stop-opacity="0"/>
</linearGradient>
<linearGradient id="paint12_linear_121_1829" x1="517.949" y1="384.077" x2="517.949" y2="757.564" gradientUnits="userSpaceOnUse">
<stop stop-color="#333333"/>
<stop offset="1" stop-color="#333333" stop-opacity="0"/>
</linearGradient>
<linearGradient id="paint13_linear_121_1829" x1="517.923" y1="365.648" x2="517.923" y2="731.719" gradientUnits="userSpaceOnUse">
<stop stop-color="#333333"/>
<stop offset="1" stop-color="#333333" stop-opacity="0"/>
</linearGradient>
<linearGradient id="paint14_linear_121_1829" x1="517.936" y1="347.525" x2="517.936" y2="709.442" gradientUnits="userSpaceOnUse">
<stop stop-color="#333333"/>
<stop offset="1" stop-color="#333333" stop-opacity="0"/>
</linearGradient>
<linearGradient id="paint15_linear_121_1829" x1="517.949" y1="327.068" x2="517.949" y2="689.652" gradientUnits="userSpaceOnUse">
<stop stop-color="#333333"/>
<stop offset="1" stop-color="#333333" stop-opacity="0"/>
</linearGradient>
<linearGradient id="paint16_linear_121_1829" x1="517.949" y1="306.196" x2="517.949" y2="673.625" gradientUnits="userSpaceOnUse">
<stop stop-color="#333333"/>
<stop offset="1" stop-color="#333333" stop-opacity="0"/>
</linearGradient>
<linearGradient id="paint17_linear_121_1829" x1="517.949" y1="283.938" x2="517.949" y2="659.007" gradientUnits="userSpaceOnUse">
<stop stop-color="#333333"/>
<stop offset="1" stop-color="#333333" stop-opacity="0"/>
</linearGradient>
<linearGradient id="paint18_linear_121_1829" x1="517.949" y1="258.793" x2="517.949" y2="644.063" gradientUnits="userSpaceOnUse">
<stop stop-color="#333333"/>
<stop offset="1" stop-color="#333333" stop-opacity="0"/>
</linearGradient>
<linearGradient id="paint19_linear_121_1829" x1="517.936" y1="231.893" x2="517.936" y2="626.385" gradientUnits="userSpaceOnUse">
<stop stop-color="#333333"/>
<stop offset="1" stop-color="#333333" stop-opacity="0"/>
</linearGradient>
<linearGradient id="paint20_linear_121_1829" x1="517.949" y1="206.284" x2="517.949" y2="602.644" gradientUnits="userSpaceOnUse">
<stop stop-color="#333333"/>
<stop offset="1" stop-color="#333333" stop-opacity="0"/>
</linearGradient>
<linearGradient id="paint21_linear_121_1829" x1="517.923" y1="180.77" x2="517.923" y2="571.705" gradientUnits="userSpaceOnUse">
<stop stop-color="#333333"/>
<stop offset="1" stop-color="#333333" stop-opacity="0"/>
</linearGradient>
<linearGradient id="paint22_linear_121_1829" x1="517.936" y1="148.456" x2="517.936" y2="530.516" gradientUnits="userSpaceOnUse">
<stop stop-color="#333333"/>
<stop offset="1" stop-color="#333333" stop-opacity="0"/>
</linearGradient>
<linearGradient id="paint23_linear_121_1829" x1="517.936" y1="111.891" x2="517.936" y2="475.749" gradientUnits="userSpaceOnUse">
<stop stop-color="#333333"/>
<stop offset="1" stop-color="#333333" stop-opacity="0"/>
</linearGradient>
<linearGradient id="paint24_linear_121_1829" x1="517.936" y1="94.9958" x2="517.936" y2="448.703" gradientUnits="userSpaceOnUse">
<stop stop-color="#333333"/>
<stop offset="1" stop-color="#333333" stop-opacity="0"/>
</linearGradient>
<linearGradient id="paint25_linear_121_1829" x1="517.923" y1="82.4922" x2="517.923" y2="419.225" gradientUnits="userSpaceOnUse">
<stop stop-color="#333333"/>
<stop offset="1" stop-color="#333333" stop-opacity="0"/>
</linearGradient>
<linearGradient id="paint26_linear_121_1829" x1="517.936" y1="73.4679" x2="517.936" y2="389.291" gradientUnits="userSpaceOnUse">
<stop stop-color="#333333"/>
<stop offset="1" stop-color="#333333" stop-opacity="0"/>
</linearGradient>
<linearGradient id="paint27_linear_121_1829" x1="517.923" y1="66.6965" x2="517.923" y2="367.522" gradientUnits="userSpaceOnUse">
<stop stop-color="#333333"/>
<stop offset="1" stop-color="#333333" stop-opacity="0"/>
</linearGradient>
<linearGradient id="paint28_linear_121_1829" x1="517.949" y1="67.2205" x2="517.949" y2="349.632" gradientUnits="userSpaceOnUse">
<stop stop-color="#333333"/>
<stop offset="1" stop-color="#333333" stop-opacity="0"/>
</linearGradient>
<linearGradient id="paint29_linear_121_1829" x1="517.936" y1="61.0151" x2="517.936" y2="335.086" gradientUnits="userSpaceOnUse">
<stop stop-color="#333333"/>
<stop offset="1" stop-color="#333333" stop-opacity="0"/>
</linearGradient>
<linearGradient id="paint30_linear_121_1829" x1="517.936" y1="53.1099" x2="517.936" y2="329.873" gradientUnits="userSpaceOnUse">
<stop stop-color="#333333"/>
<stop offset="1" stop-color="#333333" stop-opacity="0"/>
</linearGradient>
<linearGradient id="paint31_linear_121_1829" x1="517.923" y1="42.2808" x2="517.923" y2="321.088" gradientUnits="userSpaceOnUse">
<stop stop-color="#333333"/>
<stop offset="1" stop-color="#333333" stop-opacity="0"/>
</linearGradient>
<linearGradient id="paint32_linear_121_1829" x1="517.936" y1="27.5073" x2="517.936" y2="312.394" gradientUnits="userSpaceOnUse">
<stop stop-color="#333333"/>
<stop offset="1" stop-color="#333333" stop-opacity="0"/>
</linearGradient>
<linearGradient id="paint33_linear_121_1829" x1="517.961" y1="-6.24744" x2="517.961" y2="303.338" gradientUnits="userSpaceOnUse">
<stop stop-color="#333333"/>
<stop offset="1" stop-color="#333333" stop-opacity="0"/>
</linearGradient>
<linearGradient id="paint34_linear_121_1829" x1="517.936" y1="-44.8303" x2="517.936" y2="292.744" gradientUnits="userSpaceOnUse">
<stop stop-color="#333333"/>
<stop offset="1" stop-color="#333333" stop-opacity="0"/>
</linearGradient>
<linearGradient id="paint35_linear_121_1829" x1="517.936" y1="-82.7058" x2="517.936" y2="280.296" gradientUnits="userSpaceOnUse">
<stop stop-color="#333333"/>
<stop offset="1" stop-color="#333333" stop-opacity="0"/>
</linearGradient>
<linearGradient id="paint36_linear_121_1829" x1="517.923" y1="-118.746" x2="517.923" y2="263.815" gradientUnits="userSpaceOnUse">
<stop stop-color="#333333"/>
<stop offset="1" stop-color="#333333" stop-opacity="0"/>
</linearGradient>
<linearGradient id="paint37_linear_121_1829" x1="517.923" y1="-152.399" x2="517.923" y2="236.485" gradientUnits="userSpaceOnUse">
<stop stop-color="#333333"/>
<stop offset="1" stop-color="#333333" stop-opacity="0"/>
</linearGradient>
<linearGradient id="paint38_linear_121_1829" x1="517.936" y1="-169.585" x2="517.936" y2="199.975" gradientUnits="userSpaceOnUse">
<stop stop-color="#333333"/>
<stop offset="1" stop-color="#333333" stop-opacity="0"/>
</linearGradient>
<linearGradient id="paint39_linear_121_1829" x1="517.936" y1="-183.878" x2="517.936" y2="162.624" gradientUnits="userSpaceOnUse">
<stop stop-color="#333333"/>
<stop offset="1" stop-color="#333333" stop-opacity="0"/>
</linearGradient>
<linearGradient id="paint40_linear_121_1829" x1="517.936" y1="-197.231" x2="517.936" y2="125.119" gradientUnits="userSpaceOnUse">
<stop stop-color="#333333"/>
<stop offset="1" stop-color="#333333" stop-opacity="0"/>
</linearGradient>
<linearGradient id="paint41_linear_121_1829" x1="517.949" y1="-207.885" x2="517.949" y2="87.5126" gradientUnits="userSpaceOnUse">
<stop stop-color="#333333"/>
<stop offset="1" stop-color="#333333" stop-opacity="0"/>
</linearGradient>
<linearGradient id="paint42_linear_121_1829" x1="517.923" y1="-216.726" x2="517.923" y2="48.9728" gradientUnits="userSpaceOnUse">
<stop stop-color="#333333"/>
<stop offset="1" stop-color="#333333" stop-opacity="0"/>
</linearGradient>
<linearGradient id="paint43_linear_121_1829" x1="517.949" y1="-222.724" x2="517.949" y2="10.6519" gradientUnits="userSpaceOnUse">
<stop stop-color="#333333"/>
<stop offset="1" stop-color="#333333" stop-opacity="0"/>
</linearGradient>
<clipPath id="clip0_121_1829">
<rect width="1924" height="1286" fill="white" transform="translate(-444 -237)"/>
</clipPath>
</defs>
</svg>
