<?xml version="1.0" encoding="UTF-8"?>
<svg xmlns="http://www.w3.org/2000/svg" viewBox="0 0 1080 1080">
  <defs>
    <style>
      .cls-1 {
        letter-spacing: .06em;
      }

      .cls-2 {
        fill: none;
        stroke: #fff;
        stroke-miterlimit: 10;
        stroke-width: 8px;
      }

      .cls-3 {
        letter-spacing: .06em;
      }

      .cls-4, .cls-5, .cls-6, .cls-7 {
        fill: #fff;
      }

      .cls-5 {
        font-size: 70px;
      }

      .cls-5, .cls-6 {
        font-family: DarkerGrotesque-Bold, 'Darker Grotesque';
        font-weight: 700;
      }

      .cls-6 {
        font-size: 85px;
        letter-spacing: .05em;
      }

      .cls-7 {
        font-family: BellMTBold, 'Bell MT';
        font-size: 199px;
      }

      .cls-8 {
        letter-spacing: -.01em;
      }

      .cls-9 {
        letter-spacing: -.05em;
      }

      .cls-10 {
        letter-spacing: .07em;
      }
    </style>
  </defs>
  <g id="Camada_1" data-name="Camada 1">
    <g>
      <text class="cls-6" transform="translate(145.64 829.74)"><tspan x="0" y="0">CASAS MODULARES</tspan></text>
      <circle class="cls-2" cx="557.5" cy="426.99" r="170.5"/>
      <polygon class="cls-4" points="476.1 375.21 508.08 350.54 508.99 586.32 473.35 574.44 476.1 375.21"/>
      <polygon class="cls-4" points="538.91 320.11 570.89 295.44 571.81 596.24 534.68 595.81 538.91 320.11"/>
      <polygon class="cls-4" points="600.07 267.22 632.05 242.54 635.72 575.37 597.99 589.05 600.07 267.22"/>
    </g>
    <text class="cls-7" transform="translate(40.51 741.42)"><tspan x="0" y="0">Cria-</tspan><tspan class="cls-9" x="441.53" y="0">F</tspan><tspan x="553.95" y="0">o</tspan><tspan class="cls-8" x="661.71" y="0">r</tspan><tspan x="739.93" y="0">ma</tspan></text>
  </g>
  <g id="branco_vertical">
    <text class="cls-5" transform="translate(154.87 821.29)"><tspan class="cls-3" x="0" y="0">CONS</tspan><tspan class="cls-10" x="181.65" y="0">T</tspan><tspan class="cls-3" x="219.24" y="0">RUIN</tspan><tspan class="cls-1" x="384.02" y="0">D</tspan><tspan class="cls-3" x="430.63" y="0">O SONHOS</tspan></text>
    <circle class="cls-2" cx="564.43" cy="426.99" r="170.5"/>
    <polygon class="cls-4" points="483.02 375.21 515.01 350.54 515.92 586.32 480.28 574.44 483.02 375.21"/>
    <polygon class="cls-4" points="545.84 320.11 577.82 295.44 578.74 596.24 541.61 595.81 545.84 320.11"/>
    <polygon class="cls-4" points="607 267.22 638.98 242.54 642.65 575.37 604.92 589.05 607 267.22"/>
  </g>
</svg>